<svg width="512" height="512" viewBox="0 0 200 200" xmlns="http://www.w3.org/2000/svg">
  <defs>
    <radialGradient id="bg" cx="28%" cy="30%" r="82%">
      <stop offset="0%"   stop-color="#F7F4FF"/>
      <stop offset="55%"  stop-color="#F0ECFC"/>
      <stop offset="100%" stop-color="#E8F3FD"/>
    </radialGradient>
    <filter id="bshadow" x="-10%" y="-10%" width="120%" height="130%">
      <feDropShadow dx="0" dy="5" stdDeviation="7" flood-color="#9B8FD4" flood-opacity="0.18"/>
    </filter>
    <filter id="barshadow" x="-20%" y="-20%" width="140%" height="140%">
      <feDropShadow dx="0" dy="3" stdDeviation="4" flood-color="#8B80C8" flood-opacity="0.15"/>
    </filter>
    <clipPath id="round"><rect width="200" height="200" rx="46"/></clipPath>
  </defs>

  <g clip-path="url(#round)">
    <rect width="200" height="200" fill="url(#bg)"/>
    <ellipse cx="45" cy="48" rx="95" ry="72" fill="white" opacity="0.45"/>
    <ellipse cx="160" cy="165" rx="70" ry="55" fill="#C4B8EA" opacity="0.08"/>

    <text x="14" y="152"
          font-family="-apple-system,'Helvetica Neue',Arial,sans-serif"
          font-weight="900"
          font-size="138"
          fill="#6B5FA7"
          filter="url(#bshadow)">B</text>

    <rect x="113" y="131" width="19" height="29" rx="7" fill="#FFD66B" opacity="0.3" filter="url(#barshadow)"/>
    <rect x="135" y="111" width="19" height="49" rx="7" fill="#C4A5FF" opacity="0.3" filter="url(#barshadow)"/>
    <rect x="157" y="94"  width="19" height="66" rx="7" fill="#7EC6FF" opacity="0.3" filter="url(#barshadow)"/>
    <rect x="113" y="130" width="19" height="29" rx="7" fill="#FFD66B"/>
    <rect x="135" y="110" width="19" height="49" rx="7" fill="#C4A5FF"/>
    <rect x="157" y="93"  width="19" height="66" rx="7" fill="#7EC6FF"/>

    <line x1="111" y1="161" x2="178" y2="161" stroke="#6B5FA7" stroke-width="2" opacity="0.15"/>

    <circle cx="170" cy="28" r="5"   fill="#FFD66B" opacity="0.55"/>
    <circle cx="183" cy="18" r="3.5" fill="#C4A5FF" opacity="0.5"/>
    <circle cx="157" cy="18" r="3"   fill="#7EC6FF" opacity="0.45"/>
  </g>
</svg>
